<svg width="512" height="512" viewBox="0 0 512 512" fill="none" xmlns="http://www.w3.org/2000/svg">
  <defs>
    <linearGradient id="fieldops-bg" x1="64" y1="24" x2="448" y2="488" gradientUnits="userSpaceOnUse">
      <stop stop-color="#576BFF"/>
      <stop offset="0.52" stop-color="#327FEF"/>
      <stop offset="1" stop-color="#0CC8D8"/>
    </linearGradient>
    <linearGradient id="fieldops-grain" x1="217" y1="105" x2="337" y2="360" gradientUnits="userSpaceOnUse">
      <stop stop-color="#FFF07A"/>
      <stop offset="1" stop-color="#FFC938"/>
    </linearGradient>
    <filter id="fieldops-shadow" x="78" y="62" width="356" height="390" filterUnits="userSpaceOnUse" color-interpolation-filters="sRGB">
      <feDropShadow dx="0" dy="18" stdDeviation="18" flood-color="#14213D" flood-opacity="0.22"/>
    </filter>
  </defs>
  <rect width="512" height="512" rx="132" fill="url(#fieldops-bg)"/>
  <circle cx="405" cy="100" r="64" fill="#88EEFF" fill-opacity="0.2"/>
  <circle cx="92" cy="410" r="92" fill="#2450C7" fill-opacity="0.28"/>
  <g filter="url(#fieldops-shadow)">
    <path d="M256 72C181 103 130 172 130 251C130 336 188 393 256 440C324 393 382 336 382 251C382 172 331 103 256 72Z" fill="#102A58"/>
    <path d="M256 94C210 130 183 184 183 242C183 304 211 348 256 389C301 348 329 304 329 242C329 184 302 130 256 94Z" fill="url(#fieldops-grain)"/>
    <path d="M255 113C276 178 278 243 256 302C246 329 232 350 216 369" stroke="#FF7468" stroke-width="24" stroke-linecap="round"/>
    <path d="M157 272C170 344 218 389 256 417C294 389 342 344 355 272" stroke="#55E6C1" stroke-width="22" stroke-linecap="round"/>
    <circle cx="256" cy="304" r="52" fill="#102A58"/>
    <circle cx="256" cy="304" r="23" fill="#F7FCFF"/>
  </g>
</svg>
